<svg width="57" height="66" viewBox="0 0 57 66" fill="currentColor" xmlns="http://www.w3.org/2000/svg">
    <path d="M28.5 22.95C25.8005 22.95 23.2115 21.8701 21.3027 19.9478C19.3938 18.0256 18.3214 15.4185 18.3214 12.7C18.3214 9.98153 19.3938 7.3744 21.3027 5.45215C23.2115 3.52991 25.8005 2.45 28.5 2.45C31.1995 2.45 33.7885 3.52991 35.6973 5.45215C37.6062 7.3744 38.6786 9.98153 38.6786 12.7C38.6786 14.046 38.4153 15.3789 37.9038 16.6225C37.3923 17.8661 36.6425 18.996 35.6973 19.9478C34.7522 20.8996 33.6301 21.6547 32.3952 22.1698C31.1602 22.6849 29.8367 22.95 28.5 22.95ZM28.5 -16C20.9413 -16 13.6922 -12.9763 8.34746 -7.59397C3.00267 -2.21167 0 5.08829 0 12.7C0 34.225 28.5 66 28.5 66C28.5 66 57 34.225 57 12.7C57 5.08829 53.9973 -2.21167 48.6525 -7.59397C43.3078 -12.9763 36.0587 -16 28.5 -16Z"/>
</svg>
