<svg width="75" height="62" viewBox="0 0 75 75" fill="currentColor" xmlns="http://www.w3.org/2000/svg">
    <path d="M57.5 0H17.5L0 7V12H5C5 12.677 5.26758 13.2629 5.80078 13.7578C6.33398 14.2527 6.9668 14.5 7.69531 14.5H67.3047C68.0332 14.5 68.666 14.2527 69.1992 13.7578C69.7324 13.2629 70 12.677 70 12H75V7L57.5 0Z"/>
    <path d="M20 17H10V47H7.69531C6.9668 47 6.33398 47.2473 5.80078 47.7422C5.54688 47.9775 5.35352 48.2334 5.2207 48.5098C5.07422 48.8147 5 49.1448 5 49.5V52H70V49.5C70 48.823 69.7324 48.2371 69.1992 47.7422C68.9141 47.4773 68.5996 47.2834 68.2578 47.1604C67.9609 47.0535 67.6426 47 67.3047 47H65V17H55V47H50V17H40V47H35V17H25V47H20V17Z"/>
    <path d="M74.1992 55.2422C73.666 54.7473 73.0332 54.5 72.3047 54.5H2.69531C1.9668 54.5 1.33398 54.7473 0.800781 55.2422C0.267578 55.7371 0 56.323 0 57V62H75V57C75 56.323 74.7324 55.7371 74.1992 55.2422Z"/>
</svg>
