<svg width="76" height="76" viewBox="0 0 76 76" fill="currentColor" xmlns="http://www.w3.org/2000/svg">
<path d="M45.2104 25.0936L28.0332 13.0007C25.6284 11.307 22.4334 11.307 20.063 13.0007L2.88577 25.0936C1.06499 26.3808 0 28.4132 0 30.615V57.6123C0 59.4754 1.54595 60.9997 3.43544 60.9997H17.1772V40.6755H30.919V60.9997H44.6607C46.5502 60.9997 48.0962 59.4754 48.0962 57.6123V30.615C48.0962 28.4132 47.0312 26.3808 45.2104 25.0936Z"/>
<path d="M68.3218 0H37.2551C33.5175 0 30.5 2.98222 30.5 6.67611L30.8086 6.98111C31.0829 7.15056 31.3572 7.28611 31.6316 7.45555L48.7765 19.5539C51.3826 21.3839 53.2342 24.095 54.0572 27.1111H61.3609V33.8889H54.503V40.6667H61.3609V47.4444H54.503V61H68.3218C72.0594 61 75.0769 58.0178 75.0769 54.3239V6.67611C75.0769 2.98222 72.0594 0 68.3218 0ZM61.3609 20.3333H54.503V13.5556H61.3609V20.3333Z"/>
</svg>
