<svg width="59" height="66" viewBox="0 0 59 66" fill="currentColor" xmlns="http://www.w3.org/2000/svg">
    <path d="M52.4444 6.6H49.1667V0H42.6111V6.6H16.3889V0H9.83333V6.6H6.55556C4.81691 6.6 3.14948 7.29535 1.92008 8.53309C0.690672 9.77083 0 11.4496 0 13.2V59.4C0 61.1504 0.690672 62.8292 1.92008 64.0669C3.14948 65.3046 4.81691 66 6.55556 66H52.4444C56.05 66 59 63.03 59 59.4V13.2C59 9.57 56.05 6.6 52.4444 6.6ZM29.5 16.5C34.9411 16.5 39.3333 20.922 39.3333 26.4C39.3333 31.878 34.9411 36.3 29.5 36.3C24.0589 36.3 19.6667 31.878 19.6667 26.4C19.6667 20.922 24.0589 16.5 29.5 16.5ZM49.1667 56.1H9.83333V52.8C9.83333 46.2 22.9444 42.57 29.5 42.57C36.0556 42.57 49.1667 46.2 49.1667 52.8V56.1Z"/>
</svg>
