<svg width="45" height="50" viewBox="0 0 45 50" fill="none" xmlns="http://www.w3.org/2000/svg">
<path fill-rule="evenodd" clip-rule="evenodd" d="M40.7167 17.9313H41.9906H41.9955C42.3481 17.9327 42.6968 18.0054 43.0205 18.1451C43.3442 18.2848 43.6363 18.4886 43.8791 18.7442C44.3797 19.2647 44.6598 19.9735 44.6598 20.7071V35.1559C44.6598 36.69 43.4652 37.9366 41.9931 37.9366H40.7861V47.8252C40.7861 48.8959 39.8815 49.7683 38.853 49.7683H5.94539C5.43066 49.7613 4.93883 49.5544 4.5739 49.1913C4.20898 48.8282 3.99957 48.3375 3.98997 47.8228V37.9341H2.71361C1.24147 37.9341 0.0469043 36.69 0.0469043 35.1584V20.7096C0.0435721 19.9777 0.32433 19.2732 0.830065 18.7442C1.32574 18.2238 2.00728 17.9313 2.71361 17.9313H3.98997V2.1442C4.00017 1.63079 4.20917 1.14137 4.57297 0.778957C4.93677 0.416544 5.42699 0.209415 5.94043 0.201172H28.8404C28.9739 0.205507 29.105 0.237224 29.2256 0.294354C29.3463 0.351483 29.4539 0.432806 29.5418 0.533271L40.4862 12.5087C40.6701 12.7116 40.7756 12.9735 40.7836 13.2472L40.7167 17.9313ZM24.5975 3.61635H7.35805V17.9313H37.3263V15.9313H25.5318C25.408 15.9309 25.2855 15.9055 25.1718 15.8565C25.0581 15.8075 24.9555 15.736 24.8701 15.6463C24.6942 15.4611 24.5965 15.2152 24.5975 14.9598V3.61635ZM7.35805 37.9341V46.3531H37.3263V37.9341H7.35805ZM28.9842 5.04388L28.03 3.96827V11.5198C28.0523 11.8742 28.1292 12.1345 28.2605 12.2955C28.3919 12.4616 28.7016 12.5434 29.1973 12.5434H35.7327L35.3783 12.1146L28.9842 5.04388Z" fill="#9AB2F6"/>
<path d="M9.9254 21.9075H12.7505V31.3333C12.7505 32.2046 12.5547 32.9615 12.163 33.604C11.7758 34.2464 11.2367 34.7415 10.5459 35.0891C9.85499 35.4368 9.0519 35.6106 8.1366 35.6106C7.32251 35.6106 6.58322 35.4676 5.91875 35.1816C5.25868 34.8911 4.73502 34.4511 4.34778 33.8614C3.96053 33.2673 3.76911 32.5215 3.77351 31.6238H6.61843C6.62723 31.9802 6.69984 32.286 6.83625 32.5413C6.97707 32.7921 7.16849 32.9857 7.41052 33.1221C7.65694 33.2541 7.94738 33.3201 8.28181 33.3201C8.63385 33.3201 8.93088 33.2453 9.17291 33.0957C9.41934 32.9417 9.60636 32.7173 9.73397 32.4224C9.86159 32.1276 9.9254 31.7646 9.9254 31.3333V21.9075Z" fill="#F8FAFC"/>
<path d="M15.1136 35.4258V21.9075H20.447C21.4723 21.9075 22.3458 22.1033 23.0675 22.4949C23.7891 22.8822 24.3392 23.4212 24.7176 24.1121C25.1005 24.7986 25.2919 25.5907 25.2919 26.4884C25.2919 27.3861 25.0983 28.1782 24.711 28.8646C24.3238 29.5511 23.7627 30.0858 23.0279 30.4686C22.2974 30.8515 21.4129 31.0429 20.3744 31.0429H16.975V28.7524H19.9123C20.4624 28.7524 20.9156 28.6578 21.2721 28.4686C21.6329 28.275 21.9013 28.0088 22.0773 27.6699C22.2578 27.3267 22.348 26.9328 22.348 26.4884C22.348 26.0395 22.2578 25.6479 22.0773 25.3135C21.9013 24.9746 21.6329 24.7128 21.2721 24.528C20.9112 24.3387 20.4536 24.2441 19.8991 24.2441H17.9717V35.4258H15.1136Z" fill="#F8FAFC"/>
<path d="M36.1122 26.2772C36.0197 25.9559 35.8899 25.6721 35.7227 25.4257C35.5555 25.1748 35.3509 24.9636 35.1088 24.792C34.8712 24.616 34.5984 24.4818 34.2904 24.3894C33.9867 24.2969 33.6501 24.2507 33.2804 24.2507C32.5896 24.2507 31.9823 24.4224 31.4586 24.7656C30.9394 25.1088 30.5345 25.6083 30.2441 26.264C29.9537 26.9152 29.8085 27.7117 29.8085 28.6534C29.8085 29.5951 29.9515 30.396 30.2375 31.0561C30.5235 31.7162 30.9284 32.22 31.452 32.5677C31.9757 32.9109 32.594 33.0825 33.3068 33.0825C33.9537 33.0825 34.506 32.9681 34.9636 32.7393C35.4257 32.5061 35.7777 32.1782 36.0197 31.7558C36.2662 31.3333 36.3894 30.8339 36.3894 30.2574L36.9703 30.3432H33.4851V28.1914H39.1419V29.8944C39.1419 31.0825 38.8911 32.1034 38.3894 32.9571C37.8878 33.8064 37.1969 34.4621 36.3168 34.9241C35.4367 35.3818 34.429 35.6106 33.2936 35.6106C32.0263 35.6106 30.913 35.3312 29.9537 34.7723C28.9944 34.209 28.2463 33.4104 27.7094 32.3762C27.177 31.3377 26.9107 30.1056 26.9107 28.6798C26.9107 27.5841 27.0692 26.6072 27.386 25.7491C27.7072 24.8866 28.1561 24.1561 28.7325 23.5577C29.309 22.9592 29.9801 22.5037 30.7458 22.1913C31.5114 21.8789 32.3409 21.7227 33.2342 21.7227C33.9999 21.7227 34.7128 21.8349 35.3729 22.0593C36.0329 22.2793 36.6182 22.5918 37.1287 22.9966C37.6435 23.4014 38.0638 23.8833 38.3894 24.4422C38.715 24.9966 38.9241 25.6083 39.0165 26.2772H36.1122Z" fill="#F8FAFC"/>
</svg>
