<svg height="24" width="24" xmlns="http://www.w3.org/2000/svg" fill="currentColor" viewBox="0 0 512 512">
    <path d="M511.997,234.386c-0.007-0.52-0.034-1.038-0.078-1.552c-0.012-0.136-0.018-0.272-0.032-0.408
			c-0.058-0.552-0.145-1.098-0.245-1.641c-0.029-0.155-0.054-0.31-0.086-0.464c-0.114-0.55-0.255-1.092-0.412-1.629
			c-0.041-0.14-0.08-0.279-0.124-0.418c-0.178-0.565-0.381-1.121-0.605-1.668c-0.043-0.105-0.084-0.209-0.129-0.313
			c-0.247-0.579-0.522-1.146-0.82-1.702c-0.024-0.045-0.041-0.092-0.066-0.137c-0.02-0.036-0.044-0.069-0.064-0.105
			c-0.303-0.549-0.632-1.083-0.983-1.604c-0.063-0.094-0.127-0.188-0.191-0.281c-0.335-0.48-0.69-0.946-1.065-1.399
			c-0.097-0.117-0.194-0.232-0.293-0.347c-0.359-0.415-0.733-0.818-1.126-1.206c-0.124-0.123-0.25-0.242-0.377-0.361
			c-0.093-0.088-0.183-0.18-0.278-0.266L270.354,5.55c-8.137-7.397-20.564-7.397-28.701,0L6.987,218.883
			c-0.095,0.087-0.185,0.179-0.279,0.267c-0.126,0.119-0.252,0.238-0.376,0.36c-0.393,0.389-0.768,0.792-1.127,1.207
			c-0.099,0.114-0.196,0.229-0.292,0.346c-0.375,0.453-0.731,0.92-1.066,1.4c-0.064,0.092-0.127,0.186-0.19,0.279
			c-0.352,0.522-0.681,1.057-0.984,1.606c-0.02,0.036-0.044,0.068-0.064,0.104c-0.024,0.045-0.041,0.091-0.065,0.136
			c-0.298,0.556-0.573,1.123-0.82,1.703c-0.045,0.104-0.086,0.209-0.129,0.313c-0.224,0.548-0.428,1.104-0.605,1.669
			c-0.044,0.138-0.082,0.277-0.123,0.416c-0.157,0.538-0.298,1.081-0.413,1.631c-0.032,0.154-0.057,0.308-0.086,0.462
			c-0.101,0.545-0.188,1.092-0.246,1.646c-0.014,0.134-0.02,0.268-0.032,0.402c-0.045,0.516-0.072,1.035-0.079,1.557
			c-0.001,0.103-0.008,0.207-0.007,0.31v255.941c-0.003,1.428,0.137,2.864,0.427,4.288c0.07,0.344,0.17,0.676,0.256,1.013
			c0.085,0.334,0.155,0.669,0.257,1.001c0.634,2.063,1.572,3.991,2.763,5.735c0.18,0.265,0.38,0.508,0.57,0.762
			c0.22,0.293,0.431,0.593,0.665,0.874c0.28,0.338,0.581,0.651,0.88,0.968c0.17,0.18,0.331,0.369,0.507,0.543
			c0.322,0.319,0.661,0.613,1,0.909c0.181,0.158,0.355,0.323,0.541,0.475c0.322,0.262,0.658,0.501,0.994,0.743
			c0.231,0.167,0.456,0.34,0.694,0.498c0.294,0.195,0.599,0.368,0.901,0.547c0.301,0.179,0.598,0.362,0.908,0.527
			c0.253,0.134,0.514,0.249,0.773,0.372c0.372,0.178,0.742,0.358,1.125,0.515c0.224,0.091,0.453,0.165,0.68,0.249
			c0.421,0.156,0.84,0.312,1.273,0.441c0.239,0.072,0.484,0.123,0.725,0.187c0.419,0.109,0.837,0.223,1.266,0.307
			c0.36,0.071,0.724,0.113,1.088,0.166c0.314,0.045,0.622,0.104,0.94,0.135c0.741,0.074,1.486,0.11,2.235,0.106h469.198
			c11.782,0,21.333-9.551,21.333-21.333V234.7C512.004,234.595,511.998,234.491,511.997,234.386z M256.004,50.167l198.139,180.126
			L256.004,338.368L57.865,230.293L256.004,50.167z M42.671,270.606l168.782,92.063L42.671,454.732V270.606z M104.999,469.335
			l364.338-198.73v198.73H104.999z"/>
</svg>