<svg width="42" height="66" viewBox="0 0 42 66" fill="currentColor" xmlns="http://www.w3.org/2000/svg">
<path fill-rule="evenodd" clip-rule="evenodd" d="M6.10909 59.92C10.1818 63.9733 15.1455 66 21 66C26.8545 66 31.8182 63.9733 35.8909 59.92C39.9636 55.8667 42 50.9267 42 45.1V5.2H36.2727V45.1C36.2727 49.28 34.7773 52.8583 31.7864 55.835C28.7955 58.8117 25.2 60.3 21 60.3C16.8 60.3 13.2045 58.8117 10.2136 55.835C7.22273 52.8583 5.72727 49.28 5.72727 45.1V5.2C5.72727 3.24409 6.22617 1.51076 7.22395 0L0.880085 7.77145e-08C0.293362 1.61531 0 3.34864 0 5.2V45.1C0 50.9267 2.03636 55.8667 6.10909 59.92ZM29.6654 7.77145e-08C30.2521 1.61531 30.5455 3.34864 30.5455 5.2V41.3C30.5455 43.96 29.6227 46.2083 27.7773 48.045C25.9318 49.8817 23.6727 50.8 21 50.8C18.3273 50.8 16.0682 49.8817 14.2227 48.045C12.3773 46.2083 11.4545 43.96 11.4545 41.3V5.2H17.1818V41.3C17.1818 42.3767 17.5484 43.2798 18.2815 44.0094C19.0145 44.739 19.9207 45.1025 21 45.1C22.0818 45.1 22.9893 44.7352 23.7224 44.0056C24.4555 43.276 24.8207 42.3741 24.8182 41.3V5.2C24.8182 3.24409 24.3193 1.51076 23.3215 0L29.6654 7.77145e-08Z"/>
</svg>
