<svg width="45" height="50" viewBox="0 0 45 50" fill="none" xmlns="http://www.w3.org/2000/svg">
<path fill-rule="evenodd" clip-rule="evenodd" d="M40.7167 17.9313H41.9906H41.9955C42.3481 17.9327 42.6968 18.0054 43.0205 18.1451C43.3442 18.2848 43.6363 18.4886 43.8791 18.7442C44.3797 19.2647 44.6598 19.9735 44.6598 20.7071V35.1559C44.6598 36.69 43.4652 37.9366 41.9931 37.9366H40.7861V47.8252C40.7861 48.8959 39.8815 49.7683 38.853 49.7683H5.94539C5.43066 49.7613 4.93883 49.5544 4.5739 49.1913C4.20898 48.8282 3.99957 48.3375 3.98997 47.8228V37.9341H2.71361C1.24147 37.9341 0.0469043 36.69 0.0469043 35.1584V20.7096C0.0435721 19.9777 0.32433 19.2732 0.830065 18.7442C1.32574 18.2238 2.00728 17.9313 2.71361 17.9313H3.98997V2.1442C4.00017 1.63079 4.20917 1.14137 4.57297 0.778957C4.93677 0.416544 5.42699 0.209415 5.94043 0.201172H28.8404C28.9739 0.205507 29.105 0.237224 29.2256 0.294354C29.3463 0.351483 29.4539 0.432806 29.5418 0.533271L40.4862 12.5087C40.6701 12.7116 40.7756 12.9735 40.7836 13.2472L40.7167 17.9313ZM24.5975 3.61635H7.35805V17.9313H37.3263V15.9313H25.5318C25.408 15.9309 25.2855 15.9055 25.1718 15.8565C25.0581 15.8075 24.9555 15.736 24.8701 15.6463C24.6942 15.4611 24.5965 15.2152 24.5975 14.9598V3.61635ZM7.35805 37.9341V46.3531H37.3263V37.9341H7.35805ZM28.9842 5.04388L28.03 3.96827V11.5198C28.0523 11.8742 28.1292 12.1345 28.2605 12.2955C28.3919 12.4616 28.7016 12.5434 29.1973 12.5434H35.7327L35.3783 12.1146L28.9842 5.04388Z" fill="#9AB2F6"/>
<path d="M6.17969 35.4265V21.9082H11.5131C12.5384 21.9082 13.4119 22.104 14.1336 22.4957C14.8553 22.8829 15.4053 23.422 15.7838 24.1128C16.1666 24.7993 16.358 25.5914 16.358 26.4891C16.358 27.3868 16.1644 28.1789 15.7772 28.8654C15.3899 29.5519 14.8288 30.0865 14.094 30.4694C13.3635 30.8522 12.479 31.0436 11.4405 31.0436H8.04109V28.7532H10.9784C11.5285 28.7532 11.9817 28.6586 12.3382 28.4693C12.699 28.2757 12.9674 28.0095 13.1435 27.6706C13.3239 27.3274 13.4141 26.9336 13.4141 26.4891C13.4141 26.0403 13.3239 25.6486 13.1435 25.3142C12.9674 24.9753 12.699 24.7135 12.3382 24.5287C11.9773 24.3395 11.5197 24.2449 10.9652 24.2449H9.03781V35.4265H6.17969Z" fill="#F8FAFC"/>
<path d="M23.0066 35.4265H18.2145V21.9082H23.0462C24.406 21.9082 25.5765 22.1788 26.5578 22.7201C27.5391 23.257 28.2938 24.0292 28.8219 25.037C29.3543 26.0447 29.6205 27.2504 29.6205 28.6542C29.6205 30.0623 29.3543 31.2724 28.8219 32.2846C28.2938 33.2967 27.5347 34.0734 26.5446 34.6146C25.5589 35.1559 24.3796 35.4265 23.0066 35.4265ZM21.0726 32.9776H22.8878C23.7327 32.9776 24.4434 32.828 25.0198 32.5288C25.6007 32.2252 26.0363 31.7565 26.3268 31.1228C26.6216 30.4848 26.769 29.6619 26.769 28.6542C26.769 27.6552 26.6216 26.839 26.3268 26.2053C26.0363 25.5716 25.6029 25.1052 25.0264 24.8059C24.45 24.5067 23.7393 24.3571 22.8944 24.3571H21.0726V32.9776Z" fill="#F8FAFC"/>
<path d="M31.7377 35.4265V21.9082H40.6883V24.2647H34.5958V27.4858H40.0943V29.8423H34.5958V35.4265H31.7377Z" fill="#F8FAFC"/>
</svg>
