<svg width="40" height="40" viewBox="0 0 40 40" fill="currentColor" xmlns="http://www.w3.org/2000/svg">
    <path d="M40 32.1319L36.2485 28.3628V9.28151H28.6518L25.2286 5.51237H17.2567L15.4748 7.49117L12.8019 4.80565L15.6155 1.74323H26.8699L30.34 5.51237H36.2485C37.2802 5.51237 38.1637 5.88174 38.8989 6.62049C39.6342 7.35925 40.0013 8.24625 40 9.28151V32.1319ZM29.6366 21.7197L20.1172 12.1555C21.4302 11.9984 22.712 12.1241 23.9625 12.5324C25.213 12.9407 26.3071 13.616 27.245 14.5583C28.1829 15.5006 28.855 16.5999 29.2614 17.8563C29.6678 19.1127 29.7929 20.4005 29.6366 21.7197ZM8.15944 5.51237L11.9109 9.28151H6.23681V31.8963H29.0739L0 2.68551L2.67292 0L39.8124 37.3145L37.1395 40L32.8253 35.6655H6.23681C5.20516 35.6655 4.32169 35.2961 3.5864 34.5574C2.85111 33.8186 2.4841 32.9316 2.48535 31.8963V9.28151C2.48535 8.245 2.85299 7.35736 3.58828 6.61861C4.32356 5.87986 5.20641 5.51111 6.23681 5.51237H8.15944ZM14.959 14.9823L17.585 17.6207C17.2411 18.0605 16.9829 18.5316 16.8103 19.0342C16.6377 19.5367 16.5521 20.055 16.5533 20.5889C16.5533 21.9081 17.0066 23.0232 17.9132 23.934C18.8199 24.8449 19.9297 25.3004 21.2427 25.3004C21.7741 25.3004 22.29 25.2137 22.7902 25.0403C23.2903 24.8669 23.7593 24.6081 24.197 24.2638L26.823 26.9494C26.0414 27.6404 25.1742 28.1668 24.2213 28.5286C23.2685 28.8905 22.2756 29.0708 21.2427 29.0695C18.898 29.0695 16.9047 28.2447 15.2628 26.5951C13.6209 24.9454 12.8006 22.9434 12.8019 20.5889C12.8019 19.5524 12.9894 18.5548 13.3646 17.5962C13.7397 16.6376 14.2712 15.7663 14.959 14.9823Z" fill="#CBD5E1"/>
</svg>
