<svg width="45" height="50" viewBox="0 0 45 50" fill="none" xmlns="http://www.w3.org/2000/svg">
<path fill-rule="evenodd" clip-rule="evenodd" d="M40.7167 17.9313H41.9906H41.9955C42.3481 17.9327 42.6968 18.0054 43.0205 18.1451C43.3442 18.2848 43.6363 18.4886 43.8791 18.7442C44.3797 19.2647 44.6598 19.9735 44.6598 20.7071V35.1559C44.6598 36.69 43.4652 37.9366 41.9931 37.9366H40.7861V47.8252C40.7861 48.8959 39.8815 49.7683 38.853 49.7683H5.94539C5.43066 49.7613 4.93883 49.5544 4.5739 49.1913C4.20898 48.8282 3.99957 48.3375 3.98997 47.8228V37.9341H2.71361C1.24147 37.9341 0.0469043 36.69 0.0469043 35.1584V20.7096C0.0435721 19.9777 0.32433 19.2732 0.830065 18.7442C1.32574 18.2238 2.00728 17.9313 2.71361 17.9313H3.98997V2.1442C4.00017 1.63079 4.20917 1.14137 4.57297 0.778957C4.93677 0.416544 5.42699 0.209415 5.94043 0.201172H28.8404C28.9739 0.205507 29.105 0.237224 29.2256 0.294354C29.3463 0.351483 29.4539 0.432806 29.5418 0.533271L40.4862 12.5087C40.6701 12.7116 40.7756 12.9735 40.7836 13.2472L40.7167 17.9313ZM24.5975 3.61635H7.35805V17.9313H37.3263V15.9313H25.5318C25.408 15.9309 25.2855 15.9055 25.1718 15.8565C25.0581 15.8075 24.9555 15.736 24.8701 15.6463C24.6942 15.4611 24.5965 15.2152 24.5975 14.9598V3.61635ZM7.35805 37.9341V46.3531H37.3263V37.9341H7.35805ZM28.9842 5.04388L28.03 3.96827V11.5198C28.0523 11.8742 28.1292 12.1345 28.2605 12.2955C28.3919 12.4616 28.7016 12.5434 29.1973 12.5434H35.7327L35.3783 12.1146L28.9842 5.04388Z" fill="#9AB2F6"/>
<path d="M3.69531 35.4258V21.9075H9.02871C10.054 21.9075 10.9275 22.1033 11.6492 22.4949C12.3709 22.8822 12.9209 23.4212 13.2994 24.1121C13.6822 24.7986 13.8736 25.5907 13.8736 26.4884C13.8736 27.3861 13.68 28.1782 13.2928 28.8646C12.9055 29.5511 12.3445 30.0858 11.6096 30.4686C10.8791 30.8515 9.99461 31.0429 8.9561 31.0429H5.55672V28.7524H8.49405C9.04411 28.7524 9.49736 28.6578 9.8538 28.4686C10.2146 28.275 10.4831 28.0088 10.6591 27.6699C10.8395 27.3267 10.9297 26.9328 10.9297 26.4884C10.9297 26.0395 10.8395 25.6479 10.6591 25.3135C10.4831 24.9746 10.2146 24.7128 9.8538 24.528C9.49296 24.3387 9.03531 24.2441 8.48084 24.2441H6.55343V35.4258H3.69531Z" fill="#F8FAFC"/>
<path d="M27.0372 21.9075V35.4258H24.5685L18.6872 26.9174H18.5882V35.4258H15.7301V21.9075H18.2384L24.0734 30.4092H24.1922V21.9075H27.0372Z" fill="#F8FAFC"/>
<path d="M38.3624 26.2772C38.27 25.9559 38.1401 25.6721 37.9729 25.4257C37.8057 25.1748 37.6011 24.9636 37.3591 24.792C37.1214 24.616 36.8486 24.4818 36.5406 24.3894C36.2369 24.2969 35.9003 24.2507 35.5307 24.2507C34.8398 24.2507 34.2325 24.4224 33.7089 24.7656C33.1896 25.1088 32.7847 25.6083 32.4943 26.264C32.2039 26.9152 32.0587 27.7117 32.0587 28.6534C32.0587 29.5951 32.2017 30.396 32.4877 31.0561C32.7737 31.7162 33.1786 32.22 33.7022 32.5677C34.2259 32.9109 34.8442 33.0825 35.5571 33.0825C36.2039 33.0825 36.7562 32.9681 37.2138 32.7393C37.6759 32.5061 38.0279 32.1782 38.27 31.7558C38.5164 31.3333 38.6396 30.8339 38.6396 30.2574L39.2205 30.3432H35.7353V28.1914H41.3921V29.8944C41.3921 31.0825 41.1413 32.1034 40.6396 32.9571C40.138 33.8064 39.4471 34.4621 38.567 34.9241C37.6869 35.3818 36.6792 35.6106 35.5439 35.6106C34.2765 35.6106 33.1632 35.3312 32.2039 34.7723C31.2446 34.209 30.4965 33.4104 29.9596 32.3762C29.4272 31.3377 29.1609 30.1056 29.1609 28.6798C29.1609 27.5841 29.3194 26.6072 29.6362 25.7491C29.9574 24.8866 30.4063 24.1561 30.9827 23.5577C31.5592 22.9592 32.2303 22.5037 32.996 22.1913C33.7617 21.8789 34.5911 21.7227 35.4844 21.7227C36.2501 21.7227 36.963 21.8349 37.6231 22.0593C38.2832 22.2793 38.8684 22.5918 39.3789 22.9966C39.8937 23.4014 40.314 23.8833 40.6396 24.4422C40.9653 24.9966 41.1743 25.6083 41.2667 26.2772H38.3624Z" fill="#F8FAFC"/>
</svg>
