<svg width="166" height="175" viewBox="0 0 166 175" fill="none" xmlns="http://www.w3.org/2000/svg">
<path d="M156.041 139.331C157.521 139.383 158.6 139.848 159.277 140.727C160.581 142.382 160.481 145.356 160.33 146.26C160.33 146.338 160.33 146.441 160.305 146.519C159.703 162.058 162.764 170.073 166 174.21H94.9553C94.5539 174.132 88.8091 173.176 88.3074 164.799C88.182 162.549 88.2321 159.938 88.3074 157.145C88.4579 150.397 88.6084 143.468 86.15 139.047C101.528 139.047 149.568 139.099 156.016 139.331H156.041Z" fill="url(#paint0_linear_1117_9301)"/>
<path d="M78.2267 139.049H78.3019C80.2336 138.972 81.1367 139.618 81.6635 140.135C83.8711 142.359 84.1722 147.762 84.1471 153.295H72.6575C72.3314 149.779 72.3314 143.832 74.6142 140.859C75.5173 139.696 76.6713 139.127 78.2267 139.023V139.049Z" fill="url(#paint1_linear_1117_9301)"/>
<path d="M106.753 35.2658C109.588 35.1366 111.871 36.0673 113.401 37.6445C115.985 40.3334 115.985 44.5219 115.985 44.5478C115.91 47.1333 114.204 106.988 120.727 134.627H76.8253C76.8253 134.627 76.6247 134.627 76.4992 134.627C75.6463 134.627 74.0408 134.86 72.4101 136.307C70.3781 138.143 69.0736 141.349 68.4967 145.796C68.4967 145.977 68.4465 146.132 68.4465 146.313C68.1956 148.433 68.0953 150.786 68.1705 153.449C68.2458 155.828 67.2925 158.026 65.6619 159.318C64.6584 160.094 63.4794 160.56 62.1498 160.637C59.3652 160.818 56.6057 159.267 54.9249 156.552C52.1654 152.053 47.3237 141.478 45.9941 121.312C43.9872 90.5957 44.3635 45.5303 44.3635 45.0908C44.3635 44.2892 44.1127 39.1182 42.2813 35.2658C57.6091 35.2658 97.7474 35.3175 106.779 35.2658H106.753ZM102.288 53.4161H78.5814C77.0511 53.4161 75.7968 54.7088 75.7968 56.286C75.7968 57.8632 77.0511 59.1559 78.5814 59.1559H102.288C103.818 59.1559 105.073 57.8632 105.073 56.286C105.073 54.7088 103.818 53.4161 102.288 53.4161ZM102.288 67.9983H59.014C57.4837 67.9983 56.2294 69.2911 56.2294 70.8683C56.2294 72.4454 57.4837 73.7382 59.014 73.7382H102.288C103.818 73.7382 105.073 72.4454 105.073 70.8683C105.073 69.2911 103.818 67.9983 102.288 67.9983ZM64.0313 117.976H107.305C108.836 117.976 110.09 116.683 110.09 115.106C110.09 113.529 108.836 112.236 107.305 112.236H64.0313C62.501 112.236 61.2467 113.529 61.2467 115.106C61.2467 116.683 62.501 117.976 64.0313 117.976ZM59.014 103.652H102.288C103.818 103.652 105.073 102.36 105.073 100.783C105.073 99.2054 103.818 97.9127 102.288 97.9127H59.014C57.4837 97.9127 56.2294 99.2054 56.2294 100.783C56.2294 102.36 57.4837 103.652 59.014 103.652ZM56.5053 88.3463H99.7794C101.31 88.3463 102.564 87.0535 102.564 85.4764C102.564 83.8992 101.31 82.6065 99.7794 82.6065H56.5053C54.9751 82.6065 53.7208 83.8992 53.7208 85.4764C53.7208 87.0535 54.9751 88.3463 56.5053 88.3463Z" fill="url(#paint2_linear_1117_9301)"/>
<path d="M35.8073 35.2637C40.1974 35.6515 39.8462 43.5631 40.0469 48.398H30.4137C31.4673 35.5222 32.6966 35.2637 35.8073 35.2637Z" fill="url(#paint3_linear_1117_9301)"/>
<circle cx="35.282" cy="35.1277" r="30.8289" fill="url(#paint4_linear_1117_9301)" stroke="white" stroke-width="7"/>
<path d="M33.1436 51.0635V37.5137H19.5938V32.9971H33.1436V19.4473H37.6602V32.9971H51.21V37.5137H37.6602V51.0635H33.1436Z" fill="white"/>
<defs>
<linearGradient id="paint0_linear_1117_9301" x1="84.1581" y1="133.091" x2="103.319" y2="195.949" gradientUnits="userSpaceOnUse">
<stop stop-color="#3D63F4"/>
<stop offset="1" stop-color="#23D6E4"/>
</linearGradient>
<linearGradient id="paint1_linear_1117_9301" x1="72.2126" y1="136.606" x2="85.968" y2="152.82" gradientUnits="userSpaceOnUse">
<stop stop-color="#3D63F4"/>
<stop offset="1" stop-color="#23D6E4"/>
</linearGradient>
<linearGradient id="paint2_linear_1117_9301" x1="40.3246" y1="14.0138" x2="162.195" y2="124.15" gradientUnits="userSpaceOnUse">
<stop stop-color="#3D63F4"/>
<stop offset="1" stop-color="#23D6E4"/>
</linearGradient>
<linearGradient id="paint3_linear_1117_9301" x1="30.1734" y1="33.0389" x2="42.9824" y2="46.6105" gradientUnits="userSpaceOnUse">
<stop stop-color="#3D63F4"/>
<stop offset="1" stop-color="#23D6E4"/>
</linearGradient>
<linearGradient id="paint4_linear_1117_9301" x1="63.9743" y1="-1.45923" x2="14.0005" y2="70.7336" gradientUnits="userSpaceOnUse">
<stop stop-color="#3D63F4"/>
<stop offset="1" stop-color="#23D6E4"/>
</linearGradient>
</defs>
</svg>
